<svg xmlns="http://www.w3.org/2000/svg" viewBox="0 0 148.27 37.26"><path d="M7.86,41.82A9,9,0,0,1,4,38.1a11.5,11.5,0,0,1-1.34-5.68V17.58A11.48,11.48,0,0,1,4,11.89,9,9,0,0,1,7.86,8.18a12.54,12.54,0,0,1,5.84-1.3,12.5,12.5,0,0,1,5.83,1.3,9,9,0,0,1,3.83,3.71,11.48,11.48,0,0,1,1.35,5.69V32.42a11.5,11.5,0,0,1-1.35,5.68,9,9,0,0,1-3.83,3.72,12.5,12.5,0,0,1-5.83,1.3A12.54,12.54,0,0,1,7.86,41.82Zm8.23-5.64a3.73,3.73,0,0,0,1.56-1.61,5.38,5.38,0,0,0,.54-2.49V17.9a5.32,5.32,0,0,0-.54-2.47,3.81,3.81,0,0,0-1.56-1.62,4.73,4.73,0,0,0-2.39-.58,4.64,4.64,0,0,0-2.38.58,3.89,3.89,0,0,0-1.57,1.62A5.32,5.32,0,0,0,9.2,17.9V32.08a5.38,5.38,0,0,0,.55,2.49,3.81,3.81,0,0,0,1.57,1.61,4.73,4.73,0,0,0,2.38.56A4.83,4.83,0,0,0,16.09,36.18Zm-4-2.29,3.78-4.47L28,39.6l-3.76,4.54Z" transform="translate(-2.69 -6.88)" fill="#fff"/><path d="M35.39,41.81A8.57,8.57,0,0,1,31.73,38a13.1,13.1,0,0,1-1.26-6V7.25h6.37v25A4.72,4.72,0,0,0,38,35.58a4.12,4.12,0,0,0,3.18,1.21,4.19,4.19,0,0,0,3.22-1.21,4.68,4.68,0,0,0,1.15-3.38v-25H51.9V32a13,13,0,0,1-1.27,6A8.67,8.67,0,0,1,47,41.81a12,12,0,0,1-5.79,1.31A11.94,11.94,0,0,1,35.39,41.81Z" transform="translate(-2.69 -6.88)" fill="#fff"/><path d="M61.4,41.82a9,9,0,0,1-3.83-3.72,11.5,11.5,0,0,1-1.34-5.68V17.58a11.48,11.48,0,0,1,1.34-5.69A9,9,0,0,1,61.4,8.18a13.75,13.75,0,0,1,11.67,0,9,9,0,0,1,3.83,3.71,11.48,11.48,0,0,1,1.35,5.69V32.42A11.5,11.5,0,0,1,76.9,38.1a9,9,0,0,1-3.83,3.72,13.75,13.75,0,0,1-11.67,0Zm8.23-5.64a3.73,3.73,0,0,0,1.56-1.61,5.38,5.38,0,0,0,.54-2.49V17.9a5.32,5.32,0,0,0-.54-2.47,3.81,3.81,0,0,0-1.56-1.62,4.73,4.73,0,0,0-2.39-.58,4.64,4.64,0,0,0-2.38.58,3.89,3.89,0,0,0-1.57,1.62,5.32,5.32,0,0,0-.55,2.47V32.08a5.38,5.38,0,0,0,.55,2.49,3.81,3.81,0,0,0,1.57,1.61,4.73,4.73,0,0,0,2.38.56A4.83,4.83,0,0,0,69.63,36.18Z" transform="translate(-2.69 -6.88)" fill="#fff"/><path d="M80.32,7.25H102.2v6.13H80.32Zm7.74,3h6.37V42.75H88.06Z" transform="translate(-2.69 -6.88)" fill="#fff"/><path d="M105.62,7.25H112v35.5h-6.34Zm2.53,0h17.22v6.18H108.15Zm0,14.8h15.26v6.12H108.15Zm0,14.52h17.22v6.18H108.15Z" transform="translate(-2.69 -6.88)" fill="#fff"/><path d="M136.77,43.12l-2.27-.9a9.07,9.07,0,0,1-3.75-2.64,10.35,10.35,0,0,1-2.09-4.37l5.93-2.62a6.42,6.42,0,0,0,2.12,3.23,5.49,5.49,0,0,0,3.45,1.09,5.19,5.19,0,0,0,3.27-.92,3.12,3.12,0,0,0,1.17-2.59V31.84a2.87,2.87,0,0,0-.68-2,4.72,4.72,0,0,0-1.78-1.23,29.88,29.88,0,0,0-2.88-1,.24.24,0,0,0-.14-.06s-.07,0-.08,0l-.32-.07A30.44,30.44,0,0,1,134,25.66a8.31,8.31,0,0,1-3.14-2.87,9.23,9.23,0,0,1-1.29-5.19v-1a10.26,10.26,0,0,1,1.28-5.25A8.29,8.29,0,0,1,134.55,8a13.9,13.9,0,0,1,5.93-1.15,12,12,0,0,1,4.65.85,8.35,8.35,0,0,1,3.36,2.54,11.54,11.54,0,0,1,2,4.21l-5.64,2.63a7,7,0,0,0-1.93-3A4.19,4.19,0,0,0,140.11,13a5,5,0,0,0-3.15.87,2.87,2.87,0,0,0-1.1,2.38v1.2a3.07,3.07,0,0,0,.74,2.13,5.18,5.18,0,0,0,1.8,1.3c.72.31,1.71.68,3,1.08a1.5,1.5,0,0,1,.32.09l.29.11a.58.58,0,0,1,.23.06l.21.06a24.8,24.8,0,0,1,4.41,1.78,8.13,8.13,0,0,1,2.93,2.82,9.19,9.19,0,0,1,1.18,5v1.51a10,10,0,0,1-1.32,5.25A8.39,8.39,0,0,1,145.8,42a14.48,14.48,0,0,1-6,1.15Z" transform="translate(-2.69 -6.88)" fill="#fff"/></svg>